<?xml version="1.0" encoding="UTF-8" standalone="no"?>
<!-- Created with Inkscape (http://www.inkscape.org/) -->

<svg
   width="35.22773mm"
   height="35.22773mm"
   viewBox="0 0 35.22773 35.22773"
   version="1.1"
   id="svg5"
   inkscape:version="1.2 (dc2aedaf03, 2022-05-15)"
   sodipodi:docname="connections_icon.svg"
   inkscape:export-filename="deltay_logo.png"
   inkscape:export-xdpi="96"
   inkscape:export-ydpi="96"
   xmlns:inkscape="http://www.inkscape.org/namespaces/inkscape"
   xmlns:sodipodi="http://sodipodi.sourceforge.net/DTD/sodipodi-0.dtd"
   xmlns="http://www.w3.org/2000/svg"
   xmlns:svg="http://www.w3.org/2000/svg">
  <sodipodi:namedview
     id="namedview7"
     pagecolor="#ffffff"
     bordercolor="#999999"
     borderopacity="1"
     inkscape:showpageshadow="0"
     inkscape:pageopacity="0"
     inkscape:pagecheckerboard="0"
     inkscape:deskcolor="#d1d1d1"
     inkscape:document-units="mm"
     showgrid="false"
     inkscape:zoom="1.0104048"
     inkscape:cx="-42.06235"
     inkscape:cy="-34.639582"
     inkscape:window-width="1920"
     inkscape:window-height="974"
     inkscape:window-x="-11"
     inkscape:window-y="-11"
     inkscape:window-maximized="1"
     inkscape:current-layer="layer1" />
  <defs
     id="defs2" />
  <g
     inkscape:label="Ebene 1"
     inkscape:groupmode="layer"
     id="layer1"
     transform="translate(-27.163983,-45.232226)">
    <circle
       style="fill:none;fill-opacity:1;stroke:#f4f6f4;stroke-width:0.841277;stroke-linecap:round;stroke-linejoin:round;stroke-miterlimit:15.6;stroke-opacity:1"
       id="circle19353-5"
       cx="44.663982"
       cy="62.732227"
       r="17.079361" />
    <g
       id="Icons"
       transform="matrix(0.35192372,0,0,0.35192372,27.974261,44.324557)"
       style="fill:#f4f6f4;fill-opacity:1;stroke:#f4f6f4;stroke-width:0.604741;stroke-dasharray:none;stroke-opacity:1">
      <path
         d="M 54.1,71 C 54.1,70.5 54,70 54,69.5 54,69.3 54,69.2 54,69 H 42 c 0,0.2 0,0.3 0,0.5 0,0.5 0,1 -0.1,1.5 z"
         id="path122307"
         style="fill:#f4f6f4;fill-opacity:1;stroke:#f4f6f4;stroke-width:0.604741;stroke-dasharray:none;stroke-opacity:1" />
      <path
         d="m 32.9,55.4 5.6,-9.7 C 37.9,45.4 37.4,45 36.8,44.6 L 31,54.7 c 0.7,0.2 1.3,0.4 1.9,0.7 z"
         id="path122309"
         style="fill:#f4f6f4;fill-opacity:1;stroke:#f4f6f4;stroke-width:0.604741;stroke-dasharray:none;stroke-opacity:1" />
      <path
         d="m 64.2,55 -6,-10.4 c -0.5,0.4 -1.1,0.7 -1.7,1.1 l 5.8,10.1 c 0.6,-0.3 1.3,-0.6 1.9,-0.8 z"
         id="path122311"
         style="fill:#f4f6f4;fill-opacity:1;stroke:#f4f6f4;stroke-width:0.604741;stroke-dasharray:none;stroke-opacity:1" />
      <path
         d="M 26.5,57 C 19.6,57 14,62.6 14,69.5 14,76.4 19.6,82 26.5,82 33.4,82 39,76.4 39,69.5 39,62.6 33.4,57 26.5,57 Z m -6,21.1 c 0.3,-3.3 3.3,-5.8 6.6,-5.5 2.9,0.3 5.2,2.6 5.5,5.5 -3.7,2.5 -8.5,2.5 -12.1,0 z m 3.2,-10.3 c 0,-1.5 1.2,-2.8 2.8,-2.8 1.5,0 2.8,1.2 2.8,2.8 0,1.5 -1.2,2.8 -2.8,2.8 -1.5,0 -2.8,-1.3 -2.8,-2.8 z m 10.6,8.7 c -0.6,-2.3 -2.3,-4.3 -4.5,-5.3 1.9,-1.8 2,-4.8 0.2,-6.8 -1.8,-1.9 -4.8,-2 -6.8,-0.2 -1.9,1.8 -2,4.8 -0.2,6.8 0.1,0.1 0.2,0.2 0.2,0.2 -2.2,1 -3.9,2.9 -4.5,5.3 -3.9,-4.3 -3.6,-10.9 0.7,-14.8 4.3,-3.9 10.9,-3.6 14.8,0.7 3.7,4 3.7,10.1 0.1,14.1 z"
         id="path122313"
         style="fill:#f4f6f4;fill-opacity:1;stroke:#f4f6f4;stroke-width:0.604741;stroke-dasharray:none;stroke-opacity:1" />
      <path
         d="M 69.5,57 C 62.6,57 57,62.6 57,69.5 57,76.4 62.6,82 69.5,82 76.4,82 82,76.4 82,69.5 82,62.6 76.4,57 69.5,57 Z m -6,21.1 c 0.3,-3.3 3.3,-5.8 6.6,-5.5 2.9,0.3 5.2,2.6 5.5,5.5 -3.7,2.5 -8.5,2.5 -12.1,0 z m 3.2,-10.3 c 0,-1.5 1.2,-2.8 2.8,-2.8 1.5,0 2.8,1.2 2.8,2.8 0,1.5 -1.2,2.8 -2.8,2.8 -1.5,0 -2.8,-1.3 -2.8,-2.8 z m 10.6,8.7 c -0.6,-2.3 -2.3,-4.3 -4.5,-5.3 1.9,-1.8 2,-4.8 0.2,-6.8 -1.8,-1.9 -4.8,-2 -6.8,-0.2 -2,1.8 -2,4.8 -0.2,6.8 0.1,0.1 0.2,0.2 0.2,0.2 -2.2,1 -3.9,2.9 -4.5,5.3 -3.9,-4.3 -3.6,-10.9 0.7,-14.8 4.3,-3.9 10.9,-3.6 14.8,0.7 3.7,4 3.7,10.1 0.1,14.1 z"
         id="path122315"
         style="fill:#f4f6f4;fill-opacity:1;stroke:#f4f6f4;stroke-width:0.604741;stroke-dasharray:none;stroke-opacity:1" />
      <path
         d="M 47.5,14 C 38.9,14 32,20.9 32,29.5 32,38.1 38.9,45 47.5,45 56.1,45 63,38.1 63,29.5 63,20.9 56.1,14 47.5,14 Z m -7.9,26.4 c 0.3,-4.4 4.1,-7.6 8.5,-7.3 3.9,0.3 7,3.4 7.3,7.3 -4.7,3.5 -11.1,3.5 -15.8,0 z m 4.1,-13.1 c 0,-2.1 1.7,-3.8 3.8,-3.8 2.1,0 3.8,1.7 3.8,3.8 0,2.1 -1.7,3.8 -3.8,3.8 -2.1,0 -3.8,-1.7 -3.8,-3.8 z m 13.5,11.4 c -0.7,-3.2 -3,-5.8 -6,-6.9 2.5,-2 2.8,-5.6 0.8,-8.1 -2,-2.5 -5.6,-2.8 -8.1,-0.8 -2.5,2 -2.9,5.6 -0.9,8.1 0.2,0.3 0.5,0.6 0.8,0.8 -3.1,1.2 -5.3,3.9 -6,7.1 -5.2,-5.3 -5.1,-13.9 0.3,-19.1 5.4,-5.2 13.9,-5.1 19.1,0.3 5.1,5.2 5.1,13.6 0,18.8 0,0 0,-0.1 0,-0.2 z"
         id="path122317"
         style="fill:#f4f6f4;fill-opacity:1;stroke:#f4f6f4;stroke-width:0.604741;stroke-dasharray:none;stroke-opacity:1" />
    </g>
  </g>
</svg>
