<?xml version="1.0" encoding="UTF-8" standalone="no"?>
<!-- Created with Inkscape (http://www.inkscape.org/) -->

<svg
   width="35.22773mm"
   height="35.22773mm"
   viewBox="0 0 35.22773 35.22773"
   version="1.1"
   id="svg5"
   inkscape:version="1.2 (dc2aedaf03, 2022-05-15)"
   sodipodi:docname="gear_icon.svg"
   inkscape:export-filename="deltay_logo.png"
   inkscape:export-xdpi="96"
   inkscape:export-ydpi="96"
   xmlns:inkscape="http://www.inkscape.org/namespaces/inkscape"
   xmlns:sodipodi="http://sodipodi.sourceforge.net/DTD/sodipodi-0.dtd"
   xmlns:xlink="http://www.w3.org/1999/xlink"
   xmlns="http://www.w3.org/2000/svg"
   xmlns:svg="http://www.w3.org/2000/svg">
  <sodipodi:namedview
     id="namedview7"
     pagecolor="#ffffff"
     bordercolor="#999999"
     borderopacity="1"
     inkscape:showpageshadow="0"
     inkscape:pageopacity="0"
     inkscape:pagecheckerboard="0"
     inkscape:deskcolor="#d1d1d1"
     inkscape:document-units="mm"
     showgrid="false"
     inkscape:zoom="1.0104048"
     inkscape:cx="-96.495979"
     inkscape:cy="105.89815"
     inkscape:window-width="1920"
     inkscape:window-height="974"
     inkscape:window-x="-11"
     inkscape:window-y="-11"
     inkscape:window-maximized="1"
     inkscape:current-layer="layer1" />
  <defs
     id="defs2">
    <linearGradient
       inkscape:collect="always"
       xlink:href="#linearGradient69838"
       id="linearGradient12159"
       gradientUnits="userSpaceOnUse"
       gradientTransform="matrix(1.0715052,0,0,1.0715052,-581.1928,655.96505)"
       x1="735.48132"
       y1="36.016788"
       x2="726.98505"
       y2="89.210815" />
    <linearGradient
       inkscape:collect="always"
       id="linearGradient69838">
      <stop
         style="stop-color:#04bc71;stop-opacity:1;"
         offset="0"
         id="stop69834" />
      <stop
         style="stop-color:#048a81;stop-opacity:1;"
         offset="1"
         id="stop69836" />
    </linearGradient>
  </defs>
  <g
     inkscape:label="Ebene 1"
     inkscape:groupmode="layer"
     id="layer1"
     transform="translate(-46.54153,-8.0482934)">
    <g
       id="g44998"
       transform="translate(-141.33838,-695.81062)">
      <circle
         style="fill:url(#linearGradient12159);fill-opacity:1;stroke:none;stroke-width:1.58118;stroke-linecap:round;stroke-linejoin:round;stroke-miterlimit:15.6"
         id="circle12151"
         cx="205.49377"
         cy="721.47278"
         r="17.613865" />
      <circle
         style="fill:none;fill-opacity:1;stroke:#f4f6f4;stroke-width:1.58118;stroke-linecap:round;stroke-linejoin:round;stroke-miterlimit:15.6;stroke-opacity:1"
         id="circle12153"
         cx="205.57845"
         cy="721.73804"
         r="14.554023" />
      <g
         transform="matrix(0.26458333,0,0,0.26458333,36.251192,626.6452)"
         id="g24792"
         style="fill:#f4f6f4;fill-opacity:1;stroke:#ffffff;stroke-width:3.26929;stroke-dasharray:none;stroke-opacity:1">
        <path
           d="m 615.6,373.717 -2.5,7.5 5.7,5.7 7.5,-2.5 c 1.99,1.113 4.104,1.986 6.3,2.6 l 3.5,7 h 8 l 3.5,-7 c 2.17,-0.596 4.254,-1.47 6.2,-2.6 l 7.5,2.5 5.7,-5.7 -2.5,-7.5 c 1.112,-1.99 1.985,-4.105 2.6,-6.3 l 7,-3.5 v -8 l -7.1,-3.4 c -0.597,-2.17 -1.471,-4.254 -2.6,-6.2 l 2.5,-7.5 -5.7,-5.7 -7.5,2.5 c -1.99,-1.113 -4.104,-1.986 -6.3,-2.6 L 644,326 h -8 l -3.5,7 c -2.17,0.596 -4.254,1.47 -6.2,2.6 l -7.5,-2.5 -5.7,5.7 2.5,7.5 c -1.112,1.99 -1.985,4.105 -2.6,6.3 l -7,3.4 v 8 l 7,3.5 c 0.596,2.176 1.469,4.265 2.6,6.217 z m -7.6,-16.453 5.874,-2.854 0.817,-0.4 0.239,-0.876 c 0.574,-2.043 1.387,-4.012 2.423,-5.865 l 0.421,-0.766 -0.276,-0.83 -2.11,-6.329 3.953,-3.954 6.327,2.11 0.855,0.285 0.78,-0.452 c 1.797,-1.043 3.721,-1.85 5.724,-2.4 l 0.863,-0.235 0.4,-0.8 2.948,-5.898 h 5.512 l 2.85,5.88 0.4,0.816 0.876,0.239 c 2.043,0.575 4.011,1.389 5.863,2.424 l 0.767,0.422 0.83,-0.277 6.327,-2.11 3.953,3.954 -2.11,6.329 -0.285,0.855 0.452,0.779 c 1.043,1.797 1.85,3.722 2.4,5.726 l 0.241,0.883 0.825,0.395 5.961,2.857 v 5.507 l -5.895,2.948 -0.8,0.4 -0.235,0.862 c -0.574,2.043 -1.388,4.012 -2.423,5.865 l -0.421,0.766 0.276,0.83 2.11,6.329 -3.953,3.954 -6.327,-2.11 -0.855,-0.285 -0.78,0.452 c -1.797,1.043 -3.721,1.85 -5.725,2.4 l -0.862,0.235 -0.4,0.8 -2.948,5.9 h -5.524 l -2.947,-5.9 -0.4,-0.8 -0.863,-0.235 c -2.042,-0.575 -4.01,-1.389 -5.862,-2.424 l -0.767,-0.422 -0.83,0.277 -6.327,2.11 -3.953,-3.954 2.111,-6.327 0.284,-0.855 -0.451,-0.78 c -1.044,-1.797 -1.851,-3.722 -2.4,-5.726 l -0.236,-0.862 -0.8,-0.4 -5.897,-2.948 z"
           id="path24788"
           style="fill:#f4f6f4;fill-opacity:1;stroke:#ffffff;stroke-width:3.26929;stroke-dasharray:none;stroke-opacity:1" />
        <path
           d="m 640,372.017 c 6.627,0 12,-5.373 12,-12 0,-6.627 -5.373,-12 -12,-12 -6.627,0 -12,5.373 -12,12 0.021,6.619 5.381,11.979 12,12 z m 0,-22.007 c 5.523,0 10,4.477 10,10 0,5.523 -4.477,10 -10,10 -5.523,0 -10,-4.477 -10,-10 0.007,-5.52 4.48,-9.993 10,-10 z"
           id="path24790"
           style="fill:#f4f6f4;fill-opacity:1;stroke:#ffffff;stroke-width:3.26929;stroke-dasharray:none;stroke-opacity:1" />
      </g>
    </g>
  </g>
</svg>
