<?xml version="1.0" encoding="UTF-8" standalone="no"?>
<!-- Created with Inkscape (http://www.inkscape.org/) -->

<svg
   width="35.22773mm"
   height="35.22773mm"
   viewBox="0 0 35.22773 35.22773"
   version="1.1"
   id="svg5"
   inkscape:version="1.2 (dc2aedaf03, 2022-05-15)"
   sodipodi:docname="handshake_icon.svg"
   inkscape:export-filename="deltay_logo.png"
   inkscape:export-xdpi="96"
   inkscape:export-ydpi="96"
   xmlns:inkscape="http://www.inkscape.org/namespaces/inkscape"
   xmlns:sodipodi="http://sodipodi.sourceforge.net/DTD/sodipodi-0.dtd"
   xmlns="http://www.w3.org/2000/svg"
   xmlns:svg="http://www.w3.org/2000/svg">
  <sodipodi:namedview
     id="namedview7"
     pagecolor="#ffffff"
     bordercolor="#999999"
     borderopacity="1"
     inkscape:showpageshadow="0"
     inkscape:pageopacity="0"
     inkscape:pagecheckerboard="0"
     inkscape:deskcolor="#d1d1d1"
     inkscape:document-units="mm"
     showgrid="false"
     inkscape:zoom="2.8578563"
     inkscape:cx="54.411412"
     inkscape:cy="59.485145"
     inkscape:window-width="1920"
     inkscape:window-height="974"
     inkscape:window-x="-11"
     inkscape:window-y="-11"
     inkscape:window-maximized="1"
     inkscape:current-layer="g22748" />
  <defs
     id="defs2" />
  <g
     inkscape:label="Ebene 1"
     inkscape:groupmode="layer"
     id="layer1"
     transform="translate(-27.163983,-45.232226)">
    <g
       id="g22748"
       transform="translate(-78.29576,-625.74302)">
      <g
         id="g116056"
         transform="matrix(0.53535647,0,0,0.53535647,-93.639028,-236.05324)">
        <path
           id="circle112734"
           style="fill:none;fill-opacity:1;stroke:#f4f6f4;stroke-width:1.58101;stroke-linecap:round;stroke-linejoin:round;stroke-miterlimit:15.6;stroke-dasharray:none;stroke-opacity:1"
           d="m 404.58792,1695.042 c -9.48766,0.01 -18.48003,4.2361 -24.53515,11.5403 l 5.84745,3.7423 c 1.14215,0.731 1.47305,2.2386 0.74211,3.3808 l -6.03593,9.4318 c -0.73095,1.1422 -2.23853,1.4731 -3.38069,0.742 l -4.01402,-2.5685 c -0.34014,1.857 -0.51474,3.7406 -0.52175,5.6285 -1.1e-4,17.6168 14.28116,31.8981 31.89798,31.898 17.61683,10e-5 31.89812,-14.2812 31.89801,-31.898 -0.007,-1.8747 -0.17883,-3.7452 -0.51414,-5.5897 l -2.64607,2.3697 c -1.16442,0.6977 -3.28859,0.4994 -3.91541,-0.7054 l -5.23735,-10.0672 c -0.62682,-1.2049 -0.32254,-2.6645 0.84189,-3.362 l 4.4152,-2.6448 c -6.05343,-7.5211 -15.18757,-11.8957 -24.84213,-11.8978 z"
           sodipodi:nodetypes="ccssscccscccssscc" />
        <path
           id="path113306"
           style="fill:#f4f6f4;fill-opacity:1;stroke:#f4f6f4;stroke-width:0.565;stroke-dasharray:none;stroke-opacity:1"
           d="m 427.7941,1704.8118 c 0.23123,0.2111 0.45346,0.4074 0.67835,0.6084 l 0.0298,-0.019 z m 0.67835,0.6084 -5.45873,3.4091 c -0.69148,0.3878 -1.22947,1.0854 -1.45995,1.8613 -0.15355,0.543 -0.15353,1.1642 0.077,1.7073 -1.61339,0.543 -3.22667,0.8529 -4.91687,0.8529 -2.30486,-0.076 -4.60959,-0.4651 -6.83762,-1.1633 -1.07559,-0.3103 -2.22829,-0.5429 -3.38069,-0.7754 h -0.15382 -0.15314 -0.15382 -0.15314 -0.38456 c -1.30609,0 -2.61179,0.5423 -3.45692,1.5507 l -0.61461,0.6984 c -0.99872,-0.3878 -2.07437,-0.6201 -3.14995,-0.6201 h -0.61461 c -0.46096,0 -0.84519,0.078 -1.30613,0.078 -0.99879,0.077 -1.99807,0.1553 -2.99682,0.1553 -1.69022,0.076 -3.38029,-0.3108 -4.91687,-1.009 0.0768,-0.4653 0.0768,-0.93 0,-1.4731 -0.23055,-0.7756 -0.76849,-1.4748 -1.45997,-1.8625 l -5.76152,-3.6454 -0.005,-0.2037 -0.83218,1.4474 5.83151,3.6413 c 0.61463,0.3105 0.92202,1.0861 0.69152,1.7066 l -0.46078,0.7761 -6.68447,11.1711 -0.46079,0.6985 c -0.23054,0.2315 -0.61505,0.3872 -0.99918,0.3872 -0.23055,0.078 -0.53725,7e-4 -0.76773,-0.1551 v 6e-4 l -4.08123,-2.8408 0.0173,0.2771 -0.21134,1.2569 -0.42752,-0.091 3.93501,2.7183 c 1.07561,0.6982 2.38126,0.6205 3.38001,-0.156 l 4.99378,5.8959 0.077,0.1553 0.15382,0.076 -1.07539,1.2411 c -1.38291,1.629 -1.22961,4.034 0.30696,5.4302 0.69147,0.6207 1.53647,0.9314 2.45843,0.9314 h 0.46079 c 0.53781,-0.078 0.99897,-0.232 1.45995,-0.5433 0.0768,0.9309 0.53779,1.8619 1.22922,2.4827 0.69148,0.6204 1.53648,0.9312 2.45844,0.9312 h 0.30764 c 0.38415,0 0.76813,-0.079 1.15231,-0.2321 0.0767,0.8532 0.46087,1.7069 1.15231,2.2498 0.61465,0.5431 1.38321,0.8538 2.15148,0.8538 h 0.38386 c 0.53777,0 0.99898,-0.232 1.45997,-0.4657 0.15354,0.5432 0.46059,1.0858 0.92156,1.4739 0.61463,0.543 1.38327,0.8536 2.2284,0.7761 h 0.15312 0.15383 c 0.46094,-0.078 0.922,-0.311 1.30613,-0.5434 l 0.077,0.077 1.0754,0.8529 0.077,0.078 0.077,0.079 c 0.69148,0.4652 1.53631,0.6977 2.30461,0.6977 h 0.46148 c 1.92073,-0.1558 3.45679,-1.5513 3.99461,-3.4132 1.69021,-0.3102 3.07355,-1.6289 3.53452,-3.3357 1.76707,-0.388 3.14969,-1.7069 3.53383,-3.4133 h 0.30765 c 2.45849,-0.2317 4.30209,-2.4049 4.14844,-4.8877 v -0.5433 l 0.61461,-0.7753 5.30143,-6.2064 c 0.99876,0.8535 2.38142,0.8529 3.53383,0.1553 l 3.6835,-3.1209 -0.13858,-0.4691 -0.12269,-1.3747 c 0.0679,-0.4488 -0.53814,1.0507 -0.49802,0.6368 l -0.23067,-0.429 0.47162,0.3056 -3.85742,3.2095 c -0.23056,0.1558 -0.53794,0.2314 -0.76843,0.2314 -0.38416,0 -0.7681,-0.1558 -1.0754,-0.4655 l -0.46078,-0.7761 -2.07456,-3.4133 -4.83996,-8.0682 c -0.46096,-0.6981 -0.23082,-1.5518 0.38387,-2.0171 0.0768,0 0.0771,-0.078 0.15382,-0.078 l 5.90635,-3.6406 c -0.36929,-0.3233 -0.74935,-0.6597 -1.13914,-1.0082 z m 1.13914,1.0082 c 0.007,0 0.0121,0.013 0.0186,0.017 l -0.009,-0.023 z m -1.20715,-0.5518 0.97816,1.3686 0.17692,-0.3562 c -0.37143,-0.3261 -0.75766,-0.6646 -1.15508,-1.0124 z m -54.95369,15.9372 -0.072,-1.1427 -0.12604,1.0047 z m -0.19818,-0.138 -0.33675,-0.2341 0.29934,0.5335 z m 7.12933,-15.2474 h -0.008 l -0.12685,-0.058 0.10191,0.118 z m -0.0326,0.056 -0.0894,0.1553 0.33053,0.1247 z m 25.07078,6.2223 v 8e-4 h 0.30696 c 0.15356,0 0.23026,0.078 0.38386,0.078 3.5341,0.6982 6.76135,1.9388 10.52597,1.9388 1.92072,0 3.84133,-0.31 5.60839,-1.0082 l 4.45609,7.2928 2.07456,3.4909 -5.53217,6.4392 c -0.23056,-0.3882 -0.53732,-0.6985 -0.84466,-1.0089 l -14.36744,-12.4903 -6.29991,7.2928 c -0.5378,0.6204 -1.22875,1.008 -2.07386,1.0858 h -0.23075 c -0.76829,0 -1.45992,-0.3103 -2.07456,-0.7754 -1.30608,-1.0861 -1.45947,-2.9482 -0.38388,-4.2669 l 0.077,-0.078 6.06916,-6.9825 c 0.61464,-0.698 1.4602,-1.0088 2.30531,-1.0088 z m -17.74744,0.7775 c 1.69023,0.8531 3.61076,1.2407 5.53148,1.1633 1.53653,0 3.07319,-0.1556 4.4561,-0.3104 h 0.46077 c 0.69142,0 1.38304,0.076 1.99765,0.3104 l -4.22534,5.043 c -0.84512,0.9308 -1.22982,2.1721 -1.153,3.4133 0.0768,1.2414 0.69187,2.3277 1.61377,3.1812 0.84511,0.6983 1.92059,1.0857 2.99614,1.0857 h 0.38387 c 1.22927,-0.078 2.38234,-0.6982 3.15065,-1.629 l 5.22382,-6.0512 0.84536,0.7761 12.36909,10.7054 c 0.53778,0.4654 0.84535,1.2408 0.84535,1.9394 v 0.3104 c 0.15355,1.629 -1.07579,3.0254 -2.68917,3.1805 h -0.30697 c -0.46098,0 -0.922,-0.1558 -1.30613,-0.3104 0,0.1558 0.077,0.3107 0.077,0.4656 0.15355,1.7069 -1.07585,3.1806 -2.76608,3.3356 -0.23056,0 -0.53797,6e-4 -0.76843,-0.076 v 0.076 c 0.15354,1.7069 -1.07517,3.1806 -2.7654,3.3357 -0.23055,0 -0.53794,5e-4 -0.76844,-0.078 v 0.078 c 0.15356,1.7066 -1.07586,3.1813 -2.76609,3.3364 h -0.23004 c -0.53778,0 -1.07597,-0.1559 -1.61379,-0.4656 l -0.99847,-0.7755 2.45844,-2.8713 c 1.07561,-1.3188 0.9216,-3.2577 -0.30766,-4.3438 -0.53778,-0.4657 -1.22868,-0.7761 -1.99695,-0.7761 -0.23058,0 -0.53796,0 -0.76844,0.078 -0.0768,-0.931 -0.46085,-1.7843 -1.1523,-2.4051 -0.61461,-0.5431 -1.46022,-0.8529 -2.30531,-0.8529 -0.38413,0 -0.69126,0.076 -1.0754,0.1551 0,-1.0862 -0.46101,-2.0946 -1.30613,-2.87 -0.69145,-0.6205 -1.53649,-1.009 -2.45843,-0.9313 -0.46095,0 -0.92208,0.076 -1.38304,0.2322 -0.0768,-1.0861 -0.53784,-2.0948 -1.30613,-2.7931 -0.69148,-0.6205 -1.53649,-1.008 -2.45844,-0.9306 -1.0756,0 -2.15095,0.4655 -2.91922,1.3186 l -1.99765,2.3275 -0.077,-0.078 -5.22452,-6.1281 z m 3.61074,15.2827 c 0.5378,0 1.07581,0.2312 1.45996,0.5425 0.92192,0.8533 1.07505,2.328 0.23004,3.2588 l -4.07153,4.655 c -0.38417,0.4654 -0.92223,0.6981 -1.53686,0.7754 h -0.23074 c -1.22927,0 -2.2277,-1.0865 -2.2277,-2.3276 0,-0.5431 0.2305,-1.086 0.5377,-1.4737 l 4.07221,-4.655 c 0.46098,-0.4658 1.07544,-0.7754 1.76692,-0.7754 z m 5.14762,3.4909 c 0.53775,0 1.07508,0.2319 1.45925,0.5432 0.92194,0.8535 1.0758,2.3271 0.23074,3.258 l -3.53382,4.1118 c -0.38417,0.4651 -0.92223,0.7761 -1.53688,0.7761 h -0.23073 c -1.22925,0 -2.2277,-1.0863 -2.2277,-2.3275 0,-0.5432 0.23045,-1.086 0.53769,-1.4739 l 3.53453,-4.1117 c 0.46098,-0.4656 1.07544,-0.776 1.76692,-0.776 z m 4.83994,3.6461 c 0.46096,0 0.92194,0.1561 1.22922,0.4655 0.7683,0.6982 0.84543,1.9396 0.15384,2.7155 l -3.53453,4.1111 c -0.30728,0.3879 -0.76826,0.6208 -1.22922,0.6208 h -0.23003 c -0.46098,0 -0.84509,-0.1554 -1.22922,-0.4648 -0.76827,-0.6986 -0.84539,-1.9401 -0.15384,-2.7162 l 3.53453,-4.1111 c 0.38413,-0.3879 0.92144,-0.6208 1.45925,-0.6208 z m 4.14914,3.181 c 0.38413,0 0.69117,0.1557 0.99848,0.3874 0.61463,0.5435 0.69171,1.5517 0.15383,2.1723 l -2.99614,3.4908 c -0.23054,0.3103 -0.61502,0.466 -0.99918,0.5433 -0.38412,0 -0.845,-0.076 -1.15229,-0.388 -0.61465,-0.5432 -0.69177,-1.5508 -0.15384,-2.1716 l 2.99684,-3.4915 c 0.30728,-0.3106 0.69133,-0.5427 1.1523,-0.5427 z"
           sodipodi:nodetypes="cccccccccccccccsccsscccccccccccccccccccccccccccsccsssccssccccccccccscccccccccccccccccscccccccccccccccccccccccccccccccccccscsccccccccsccccccccsccscscccccsccscccccccccsccccsccscccccccccccsccccssccsscccsssccsscccsscccsscccccccs" />
      </g>
    </g>
  </g>
</svg>
