<?xml version="1.0" encoding="UTF-8" standalone="no"?>
<!-- Created with Inkscape (http://www.inkscape.org/) -->

<svg
   width="35.22773mm"
   height="35.22773mm"
   viewBox="0 0 35.22773 35.22773"
   version="1.1"
   id="svg5"
   inkscape:version="1.2 (dc2aedaf03, 2022-05-15)"
   sodipodi:docname="ideas_icon.svg"
   inkscape:export-filename="deltay_logo.png"
   inkscape:export-xdpi="96"
   inkscape:export-ydpi="96"
   xmlns:inkscape="http://www.inkscape.org/namespaces/inkscape"
   xmlns:sodipodi="http://sodipodi.sourceforge.net/DTD/sodipodi-0.dtd"
   xmlns="http://www.w3.org/2000/svg"
   xmlns:svg="http://www.w3.org/2000/svg">
  <sodipodi:namedview
     id="namedview7"
     pagecolor="#ffffff"
     bordercolor="#999999"
     borderopacity="1"
     inkscape:showpageshadow="0"
     inkscape:pageopacity="0"
     inkscape:pagecheckerboard="0"
     inkscape:deskcolor="#d1d1d1"
     inkscape:document-units="mm"
     showgrid="false"
     inkscape:zoom="1.0104048"
     inkscape:cx="-42.06235"
     inkscape:cy="-34.639582"
     inkscape:window-width="1920"
     inkscape:window-height="974"
     inkscape:window-x="-11"
     inkscape:window-y="-11"
     inkscape:window-maximized="1"
     inkscape:current-layer="layer1" />
  <defs
     id="defs2" />
  <g
     inkscape:label="Ebene 1"
     inkscape:groupmode="layer"
     id="layer1"
     transform="translate(-27.163983,-45.232226)">
    <g
       id="g123401"
       transform="matrix(0.54582071,0,0,0.54582071,-170.53688,-936.36317)">
      <path
         id="circle19353-8"
         style="fill:none;fill-opacity:1;stroke:#f4f6f4;stroke-width:1.58118;stroke-linecap:round;stroke-linejoin:round;stroke-miterlimit:15.6;stroke-opacity:1"
         d="m 394.26999,1799.1749 c -17.27041,2e-4 -31.2708,14.0006 -31.27096,31.271 0.006,9.7085 4.06399,18.2759 11.76282,24.1906 0.8141,-0.4928 1.6549,-1.6133 2.61646,-1.8 1.26037,-0.2448 3.56289,-1.1692 4.93146,-1.1702 1.90209,0 4.76133,0.3258 6.30049,0.9168 1.86237,0.7151 3.36957,1.3289 4.30502,2.714 0.33633,0.498 0.4527,1.7245 0.2561,2.9834 -0.19706,1.2617 -0.0871,2.4579 -0.0871,3.0831 0.91227,-0.1331 0.77874,0.6805 -0.0741,0.2861 0.60417,0.04 0.65432,0.063 1.25981,0.068 17.27081,10e-5 31.27159,-14.0007 31.27148,-31.2715 -1.6e-4,-17.2706 -14.00086,-31.2711 -31.27148,-31.271 z"
         sodipodi:nodetypes="sccscssscccss" />
      <g
         id="g120495"
         style="fill:#f4f6f4;fill-opacity:1;stroke:#f4f6f4;stroke-width:0.30474;stroke-dasharray:none;stroke-opacity:1"
         transform="matrix(2.297542,0,0,2.2965327,-328.08163,-2246.6514)">
        <path
           d="m 317.35703,1774.927 h -1.29407 c -0.13153,0 -0.23813,0.1066 -0.23813,0.2381 0,0.1316 0.1066,0.2382 0.23813,0.2382 h 1.29407 c 0.13153,0 0.23813,-0.1066 0.23813,-0.2382 0,-0.1315 -0.1066,-0.2381 -0.23813,-0.2381 z"
           id="path118236"
           style="fill:#f4f6f4;fill-opacity:1;stroke:#f4f6f4;stroke-width:0.30474;stroke-dasharray:none;stroke-opacity:1" />
        <path
           d="m 316.71119,1776.2134 c 0.26471,-0.011 0.4808,-0.2154 0.50562,-0.4791 h -1.03479 c 0.0259,0.2725 0.25538,0.4803 0.52917,0.4791 z"
           id="path118238"
           style="fill:#f4f6f4;fill-opacity:1;stroke:#f4f6f4;stroke-width:0.30474;stroke-dasharray:none;stroke-opacity:1" />
        <path
           d="m 322.78496,1768.4998 c 0.008,-0.3536 -0.27244,-0.6465 -0.62598,-0.6543 -2.6e-4,-10e-5 -5.5e-4,-10e-5 -8.2e-4,-10e-5 h -10.88575 c -0.35398,0 -0.63897,0.2916 -0.63764,0.6456 v 8.5016 c -0.004,0.3522 0.27754,0.6412 0.6297,0.6459 h 2.01375 v 2.6704 l 2.42623,-2.6704 h 6.42937 c 0.35372,0 0.63924,-0.2895 0.63791,-0.6432 v 0 z m -0.54213,8.4976 c 4.5e-4,0.061 -0.048,0.1106 -0.10874,0.1119 h -6.6638 l -0.15743,0.1733 -1.50548,1.6568 v -1.8301 h -2.53629 c -0.0609,0 -0.10896,-0.052 -0.10729,-0.1133 3e-5,0 5e-5,0 1.3e-4,0 v -8.5029 c -7.6e-4,-0.061 0.0473,-0.1119 0.10848,-0.1143 h 10.87438 c 0.0295,3e-4 0.0576,0.013 0.0778,0.034 0.0224,0.024 0.0335,0.057 0.0307,0.09 z"
           id="path118240"
           style="fill:#f4f6f4;fill-opacity:1;stroke:#f4f6f4;stroke-width:0.30474;stroke-dasharray:none;stroke-opacity:1" />
        <path
           d="m 309.66375,1783.5508 c 1.26735,5e-4 2.29507,-1.0265 2.29552,-2.2939 4.5e-4,-1.2674 -1.02658,-2.2951 -2.29394,-2.2955 -1.26735,-5e-4 -2.29507,1.0266 -2.29552,2.2939 0,4e-4 0,7e-4 0,0 -1.3e-4,1.2671 1.02687,2.2943 2.29394,2.2945 z m 0,-4.06 c 0.97509,-4e-4 1.7659,0.7897 1.76635,1.7648 4.5e-4,0.9751 -0.78967,1.7659 -1.76477,1.7663 -0.97509,5e-4 -1.76591,-0.7896 -1.76636,-1.7647 0,-3e-4 0,-6e-4 0,-8e-4 8.8e-4,-0.9744 0.79034,-1.7643 1.76478,-1.7656 z"
           id="path118242"
           style="fill:#f4f6f4;fill-opacity:1;stroke:#f4f6f4;stroke-width:0.30474;stroke-dasharray:none;stroke-opacity:1" />
        <path
           d="m 316.78368,1770.4926 c -0.0251,0 -0.05,0 -0.0749,0 -1.07407,8e-4 -1.95527,0.8507 -1.99496,1.924 v 0.085 c 0.008,0.2357 0.0557,0.4684 0.14182,0.6879 0.0798,0.2074 0.19635,0.3988 0.34396,0.5649 0.20653,0.259 0.38068,0.5423 0.51858,0.8435 0.004,0 0.008,0 0.0122,0 0.004,0 0.008,-8e-4 0.0122,0 h 1.9349 c 0.0107,-3e-4 0.0202,-0.01 0.0246,-0.016 0.13967,-0.2991 0.31456,-0.5804 0.52097,-0.8379 0.14652,-0.167 0.26291,-0.3581 0.34395,-0.5649 0.0844,-0.2209 0.13145,-0.4543 0.13917,-0.6906 v -0.071 c -0.0379,-1.0459 -0.87659,-1.8852 -1.92246,-1.924 z m 1.47267,1.986 c -0.007,0.1828 -0.0432,0.3634 -0.10821,0.5344 -0.0618,0.1583 -0.15079,0.3045 -0.263,0.4321 l -0.007,0.01 -0.006,0.01 c -0.1719,0.2145 -0.32411,0.444 -0.45482,0.6858 h -1.42104 c -0.12787,-0.2376 -0.2768,-0.4632 -0.44503,-0.6742 l -0.007,-0.01 -0.008,-0.01 c -0.11254,-0.1266 -0.20113,-0.2725 -0.26145,-0.4308 -0.0667,-0.1694 -0.10422,-0.349 -0.11086,-0.531 v -0.068 c 0.0319,-0.8298 0.71501,-1.4854 1.54543,-1.4832 0.0193,0 0.0386,0 0.0582,0 0.80552,0.033 1.45214,0.6763 1.48907,1.4816 z"
           id="path118244"
           style="fill:#f4f6f4;fill-opacity:1;stroke:#f4f6f4;stroke-width:0.30474;stroke-dasharray:none;stroke-opacity:1" />
        <path
           d="m 313.6534,1785.568 c -0.63844,-0.4953 -1.37734,-0.8452 -2.16509,-1.0252 -0.59224,-0.1778 -1.20539,-0.2764 -1.82351,-0.2932 h -0.013 c -0.60897,-5e-4 -1.21433,0.094 -1.79441,0.2789 -0.77917,0.2093 -1.51444,0.5567 -2.1709,1.0258 -0.33078,0.2531 -0.25606,-0.3077 -0.25916,0.1089 l 0.0142,-0.2362 0.21653,0.2844 0.21317,0.1095 c 10e-4,-0.249 -0.0183,0.3054 0.17799,0.1524 0.60688,-0.4321 1.23656,-0.7448 1.95633,-0.9372 0.5302,-0.1701 1.0836,-0.2568 1.64042,-0.2571 h 0.0109 c 0.57544,0.017 1.14617,0.1093 1.6973,0.2757 0.72213,0.1639 1.39951,0.4843 1.98437,0.9384 0.20503,0.1453 0.32332,0.3839 0.31486,0.635 v 2.126 h 0.52916 v -2.1191 c 0.0121,-0.4215 -0.18626,-0.8214 -0.52916,-1.0668 z"
           id="path118246"
           style="fill:#f4f6f4;fill-opacity:1;stroke:#f4f6f4;stroke-width:0.30474;stroke-dasharray:none;stroke-opacity:1"
           sodipodi:nodetypes="sccsccccccccscccccccss" />
        <path
           d="m 316.70986,1770.065 c 0.13153,0 0.23813,-0.1066 0.23813,-0.2381 v -0.5292 c 0,-0.1315 -0.1066,-0.2381 -0.23813,-0.2381 -0.13152,0 -0.23812,0.1066 -0.23812,0.2381 v 0.5292 c 0,0.1315 0.1066,0.2381 0.23812,0.2381 z"
           id="path118248"
           style="fill:#f4f6f4;fill-opacity:1;stroke:#f4f6f4;stroke-width:0.30474;stroke-dasharray:none;stroke-opacity:1" />
        <path
           d="m 314.75618,1770.636 c 0.0897,0.096 0.24032,0.1015 0.33655,0.012 0.0962,-0.09 0.10155,-0.2403 0.0119,-0.3366 -0.004,0 -0.008,-0.01 -0.0119,-0.012 l -0.37412,-0.3741 c -0.0962,-0.09 -0.24688,-0.084 -0.33655,0.012 -0.0852,0.091 -0.0852,0.2332 0,0.3247 z"
           id="path118250"
           style="fill:#f4f6f4;fill-opacity:1;stroke:#f4f6f4;stroke-width:0.30474;stroke-dasharray:none;stroke-opacity:1" />
        <path
           d="m 314.15319,1771.8406 h -0.52916 c -0.13153,0 -0.23813,0.1066 -0.23813,0.2382 0,0.1315 0.1066,0.2381 0.23813,0.2381 h 0.52916 c 0.13153,0 0.23813,-0.1066 0.23813,-0.2381 0,-0.1316 -0.1066,-0.2382 -0.23813,-0.2382 z"
           id="path118252"
           style="fill:#f4f6f4;fill-opacity:1;stroke:#f4f6f4;stroke-width:0.30474;stroke-dasharray:none;stroke-opacity:1" />
        <path
           d="m 318.51882,1770.7058 c 0.0631,0 0.12367,-0.025 0.16827,-0.07 l 0.37413,-0.3741 c 0.0897,-0.096 0.0844,-0.2469 -0.0119,-0.3366 -0.0914,-0.085 -0.23323,-0.085 -0.32467,0 l -0.37413,0.3741 c -0.093,0.093 -0.0928,0.2439 2.2e-4,0.3368 0.0446,0.044 0.10504,0.07 0.16806,0.07 z"
           id="path118254"
           style="fill:#f4f6f4;fill-opacity:1;stroke:#f4f6f4;stroke-width:0.30474;stroke-dasharray:none;stroke-opacity:1" />
        <path
           d="m 319.81845,1771.8406 h -0.52916 c -0.13153,0 -0.23813,0.1066 -0.23813,0.2382 0,0.1315 0.1066,0.2381 0.23813,0.2381 h 0.52916 c 0.13153,0 0.23813,-0.1066 0.23813,-0.2381 0,-0.1316 -0.1066,-0.2382 -0.23813,-0.2382 z"
           id="path118256"
           style="fill:#f4f6f4;fill-opacity:1;stroke:#f4f6f4;stroke-width:0.30474;stroke-dasharray:none;stroke-opacity:1" />
      </g>
    </g>
  </g>
</svg>
