<?xml version="1.0" encoding="UTF-8" standalone="no"?>
<!-- Created with Inkscape (http://www.inkscape.org/) -->

<svg
   width="35.22773mm"
   height="35.22773mm"
   viewBox="0 0 35.22773 35.22773"
   version="1.1"
   id="svg5"
   inkscape:version="1.2 (dc2aedaf03, 2022-05-15)"
   sodipodi:docname="pen_icon.svg"
   inkscape:export-filename="deltay_logo.png"
   inkscape:export-xdpi="96"
   inkscape:export-ydpi="96"
   xmlns:inkscape="http://www.inkscape.org/namespaces/inkscape"
   xmlns:sodipodi="http://sodipodi.sourceforge.net/DTD/sodipodi-0.dtd"
   xmlns:xlink="http://www.w3.org/1999/xlink"
   xmlns="http://www.w3.org/2000/svg"
   xmlns:svg="http://www.w3.org/2000/svg">
  <sodipodi:namedview
     id="namedview7"
     pagecolor="#ffffff"
     bordercolor="#999999"
     borderopacity="1"
     inkscape:showpageshadow="0"
     inkscape:pageopacity="0"
     inkscape:pagecheckerboard="0"
     inkscape:deskcolor="#d1d1d1"
     inkscape:document-units="mm"
     showgrid="false"
     inkscape:zoom="4.0416192"
     inkscape:cx="104.28988"
     inkscape:cy="50.227394"
     inkscape:window-width="1920"
     inkscape:window-height="974"
     inkscape:window-x="-11"
     inkscape:window-y="-11"
     inkscape:window-maximized="1"
     inkscape:current-layer="layer1" />
  <defs
     id="defs2">
    <linearGradient
       inkscape:collect="always"
       xlink:href="#linearGradient69838"
       id="linearGradient19365"
       gradientUnits="userSpaceOnUse"
       gradientTransform="matrix(1.0715052,0,0,1.0715052,-380.71109,694.62373)"
       x1="735.48132"
       y1="36.016788"
       x2="726.98505"
       y2="89.210815" />
    <linearGradient
       inkscape:collect="always"
       id="linearGradient69838">
      <stop
         style="stop-color:#04bc71;stop-opacity:1;"
         offset="0"
         id="stop69834" />
      <stop
         style="stop-color:#048a81;stop-opacity:1;"
         offset="1"
         id="stop69836" />
    </linearGradient>
  </defs>
  <g
     inkscape:label="Ebene 1"
     inkscape:groupmode="layer"
     id="layer1"
     transform="translate(-77.105799,-79.462544)">
    <g
       id="g104907"
       transform="translate(-311.25583,-663.055)">
      <circle
         style="fill:url(#linearGradient19365);fill-opacity:1;stroke:none;stroke-width:1.58118;stroke-linecap:round;stroke-linejoin:round;stroke-miterlimit:15.6"
         id="circle19351"
         cx="405.97549"
         cy="760.13141"
         r="17.613865" />
      <circle
         style="fill:none;fill-opacity:1;stroke:#f4f6f4;stroke-width:1.58118;stroke-linecap:round;stroke-linejoin:round;stroke-miterlimit:15.6;stroke-opacity:1"
         id="circle19353"
         cx="406.06015"
         cy="760.39667"
         r="14.554023" />
      <path
         id="path1344"
         style="fill:#f4f6f4;fill-opacity:1;stroke-width:0.176445"
         inkscape:transform-center-x="-0.071129674"
         inkscape:transform-center-y="6.828475"
         d="m 400.75137,768.77204 a 0.75727248,0.75727248 0 0 0 0.009,-0.0199 0.75727248,0.75727248 0 0 0 0.0146,-0.0355 0.75727248,0.75727248 0 0 0 0.0128,-0.0362 0.75727248,0.75727248 0 0 0 0.0109,-0.0368 0.75727248,0.75727248 0 0 0 0.009,-0.0373 0.75727248,0.75727248 0 0 0 0.007,-0.0377 0.75727248,0.75727248 0 0 0 0.005,-0.038 0.75727248,0.75727248 0 0 0 0.003,-0.0382 0.75727248,0.75727248 0 0 0 10e-4,-0.0383 0.75727248,0.75727248 0 0 0 -6.4e-4,-0.0384 0.75727248,0.75727248 0 0 0 -0.003,-0.0383 0.75727248,0.75727248 0 0 0 -0.005,-0.0381 0.75727248,0.75727248 0 0 0 -0.006,-0.0378 0.75727248,0.75727248 0 0 0 -0.008,-0.0374 0.75727248,0.75727248 0 0 0 -0.0102,-0.037 0.75727248,0.75727248 0 0 0 -0.0121,-0.0364 0.75727248,0.75727248 0 0 0 -0.0139,-0.0357 0.75727248,0.75727248 0 0 0 -0.0157,-0.035 0.75727248,0.75727248 0 0 0 -0.0174,-0.0342 0.75727248,0.75727248 0 0 0 -0.0191,-0.0333 0.75727248,0.75727248 0 0 0 -0.0208,-0.0322 0.75727248,0.75727248 0 0 0 -0.0224,-0.0311 0.75727248,0.75727248 0 0 0 -0.024,-0.03 0.75727248,0.75727248 0 0 0 -0.0255,-0.0287 0.75727248,0.75727248 0 0 0 -0.0269,-0.0273 0.75727248,0.75727248 0 0 0 -0.0282,-0.026 0.75727248,0.75727248 0 0 0 -0.0295,-0.0245 0.75727248,0.75727248 0 0 0 -0.0307,-0.023 0.75727248,0.75727248 0 0 0 -0.0924,-0.0561 0.75727248,0.75727248 0 0 0 -0.0994,-0.0424 0.75727248,0.75727248 0 0 0 -0.1044,-0.0278 0.75727248,0.75727248 0 0 0 -0.1073,-0.0127 0.75727248,0.75727248 0 0 0 -0.10801,0.003 0.75727248,0.75727248 0 0 0 -0.10654,0.0181 0.75727248,0.75727248 0 0 0 -0.10285,0.0331 0.75727248,0.75727248 0 0 0 -0.0971,0.0474 0.75727248,0.75727248 0 0 0 -0.0894,0.0607 0.75727248,0.75727248 0 0 0 -0.0274,0.025 l -0.14484,0.96972 a 0.75727248,0.75727248 0 0 0 0.0468,0.0689 0.75727248,0.75727248 0 0 0 0.0728,0.0798 0.75727248,0.75727248 0 0 0 0.0835,0.0687 0.75727248,0.75727248 0 0 0 0.0924,0.0561 0.75727248,0.75727248 0 0 0 0.0994,0.0424 0.75727248,0.75727248 0 0 0 0.10442,0.0278 0.75727248,0.75727248 0 0 0 0.007,8.7e-4 z" />
      <g
         id="g189"
         style="fill:#f4f6f4;fill-opacity:1;stroke-width:10.4081"
         transform="matrix(0.07835173,0.05560703,-0.05560703,0.07835173,405.08672,744.7521)">
        <rect
           style="fill:#f4f6f4;fill-opacity:1;stroke-width:2.75381"
           id="rect165"
           width="42.633293"
           height="132.91556"
           x="78.459587"
           y="63.054283" />
        <g
           id="g1065"
           transform="translate(0.35826297,8.2400483)"
           style="fill:#f4f6f4;fill-opacity:1;stroke-width:10.4081">
          <rect
             style="fill:#f4f6f4;fill-opacity:1;stroke-width:2.24144"
             id="rect1057"
             width="42.991558"
             height="18.987938"
             x="77.743065"
             y="27.58625" />
          <rect
             style="fill:#f4f6f4;fill-opacity:1;stroke-width:2.75381"
             id="rect1061"
             width="42.991558"
             height="28.661037"
             x="77.743065"
             y="15.405309"
             ry="134.23842"
             rx="134.23842" />
        </g>
        <path
           id="path1342"
           style="fill:#f4f6f4;fill-opacity:1;stroke-width:2.75381"
           inkscape:transform-center-x="-0.071129674"
           inkscape:transform-center-y="6.828475"
           d="m 72.010749,73.444104 16.725457,29.360896 4.444509,7.80244 a 12.532536,11.145848 0 0 1 0.130649,-0.53346 12.532536,11.145848 0 0 1 0.624482,-1.49004 12.532536,11.145848 0 0 1 0.857021,-1.39578 12.532536,11.145848 0 0 1 1.071481,-1.273 12.532536,11.145848 0 0 1 1.264577,-1.12465 12.532536,11.145848 0 0 1 1.431381,-0.95293 12.532536,11.145848 0 0 1 1.569424,-0.76219 12.532536,11.145848 0 0 1 1.67542,-0.55539 12.532536,11.145848 0 0 1 1.74691,-0.33835 12.532536,11.145848 0 0 1 1.78388,-0.11326 12.532536,11.145848 0 0 1 0.63517,0.0146 12.532536,11.145848 0 0 1 0.6327,0.0424 12.532536,11.145848 0 0 1 0.63023,0.0716 12.532536,11.145848 0 0 1 0.62449,0.0994 12.532536,11.145848 0 0 1 0.61873,0.12788 12.532536,11.145848 0 0 1 0.61051,0.15565 12.532536,11.145848 0 0 1 0.60065,0.18197 12.532536,11.145848 0 0 1 0.58998,0.20973 12.532536,11.145848 0 0 1 0.57682,0.23604 12.532536,11.145848 0 0 1 0.56286,0.26161 12.532536,11.145848 0 0 1 0.54724,0.28646 12.532536,11.145848 0 0 1 0.52999,0.31058 12.532536,11.145848 0 0 1 0.51191,0.33396 12.532536,11.145848 0 0 1 0.49219,0.35735 12.532536,11.145848 0 0 1 0.47083,0.37854 12.532536,11.145848 0 0 1 0.44946,0.399 12.532536,11.145848 0 0 1 0.42564,0.41873 12.532536,11.145848 0 0 1 0.40098,0.43773 12.532536,11.145848 0 0 1 0.37633,0.45527 12.532536,11.145848 0 0 1 0.34922,0.47135 12.532536,11.145848 0 0 1 0.3221,0.48669 12.532536,11.145848 0 0 1 0.29417,0.50058 12.532536,11.145848 0 0 1 0.26458,0.513 12.532536,11.145848 0 0 1 0.23583,0.5247 12.532536,11.145848 0 0 1 0.20542,0.53419 12.532536,11.145848 0 0 1 0.1742,0.54296 12.532536,11.145848 0 0 1 0.14379,0.55027 12.532536,11.145848 0 0 1 0.0641,0.31862 l 4.8496,-8.2884 17.06482,-29.165053 -33.78945,-0.195847 z"
           transform="matrix(0.62890587,0,0,0.70714992,33.888063,151.55753)" />
      </g>
    </g>
  </g>
</svg>
