<?xml version="1.0" encoding="UTF-8" standalone="no"?>
<!-- Created with Inkscape (http://www.inkscape.org/) -->

<svg
   width="50mm"
   height="50mm"
   viewBox="0 0 50 50"
   version="1.1"
   id="svg12516"
   inkscape:version="1.2 (dc2aedaf03, 2022-05-15)"
   sodipodi:docname="profile_icon.svg"
   xmlns:inkscape="http://www.inkscape.org/namespaces/inkscape"
   xmlns:sodipodi="http://sodipodi.sourceforge.net/DTD/sodipodi-0.dtd"
   xmlns="http://www.w3.org/2000/svg"
   xmlns:svg="http://www.w3.org/2000/svg">
  <sodipodi:namedview
     id="namedview12518"
     pagecolor="#000000"
     bordercolor="#999999"
     borderopacity="1"
     inkscape:showpageshadow="0"
     inkscape:pageopacity="0"
     inkscape:pagecheckerboard="0"
     inkscape:deskcolor="#d1d1d1"
     inkscape:document-units="mm"
     showgrid="false"
     inkscape:zoom="1.4289282"
     inkscape:cx="133.31671"
     inkscape:cy="167.25823"
     inkscape:window-width="1920"
     inkscape:window-height="974"
     inkscape:window-x="-11"
     inkscape:window-y="-11"
     inkscape:window-maximized="1"
     inkscape:current-layer="layer1" />
  <defs
     id="defs12513">
    <clipPath
       clipPathUnits="userSpaceOnUse"
       id="clipPath62719">
      <path
         id="lpe_path-effect62723"
         style="fill:#b2b2b2;fill-opacity:1;stroke:none;stroke-width:0.499999"
         class="powerclip"
         d="M -2.4014206,28.798631 H 51.6563 v 41.16583 H -2.4014206 Z m -0.1380997,18.566371 c -1.0797094,0 -1.948934,0.869224 -1.948934,1.948934 v 16.182059 c 0,1.07971 0.8692246,1.948934 1.948934,1.948934 H 54.156743 c 1.07971,0 1.948934,-0.869224 1.948934,-1.948934 V 49.313936 c 0,-1.07971 -0.869224,-1.948934 -1.948934,-1.948934 z" />
    </clipPath>
    <clipPath
       clipPathUnits="userSpaceOnUse"
       id="clipPath20105">
      <ellipse
         style="fill:#e7e7e7;fill-opacity:1;stroke:none;stroke-width:0.086758"
         id="circle20107"
         cx="24.031555"
         cy="28.199924"
         rx="24.685371"
         ry="19.052477" />
    </clipPath>
  </defs>
  <g
     inkscape:label="Ebene 1"
     inkscape:groupmode="layer"
     id="layer1">
    <circle
       style="fill:#ffffff;fill-opacity:1;stroke:none;stroke-width:0.0998128"
       id="path19715"
       cx="24.950094"
       cy="24.950094"
       r="24.950094" />
    <path
       id="path61999"
       clip-path="url(#clipPath20105)"
       d="M 46.6563,49.381546 A 22.02886,15.582915 0 0 1 24.627439,64.964461 22.02886,15.582915 0 0 1 2.5985794,49.381546 22.02886,15.582915 0 0 1 24.627439,33.798631 22.02886,15.582915 0 0 1 46.6563,49.381546 Z"
       style="fill:#b2b2b2;fill-opacity:1;stroke:none;stroke-width:0.560082"
       transform="matrix(1.0107239,0,0,1.3095459,0.66082754,-11.979002)" />
    <ellipse
       style="fill:#b2b2b2;fill-opacity:1;stroke:none;stroke-width:0.499999"
       id="path62468"
       cx="24.953793"
       cy="18.566557"
       rx="11.221135"
       ry="10.453374" />
  </g>
</svg>
